PathFileType	4	(X/Y/Z)	SUBJ62_2_walk_RCNL2025.trc
DataRate	CameraRate	NumFrames	NumMarkers	Units	OrigDataRate	OrigDataStartFrame	OrigNumFrames
100	100	6	25	mm	100	230	306
Frame#	Time	R_Shoulder			L_Shoulder			C7			J_Notch			R_Elbow			L_Elbow			R_Wrist			L_Wrist			R_Asis			L_Asis			Sacral			Thoracic			Sternum			R_Thigh_Lateral			R_Knee_Lateral			R_Shank_Lateral			R_Ankle_Lateral			R_Heel			R_Toe			L_Thigh_Lateral			L_Knee_Lateral			L_Shank_Lateral			L_Ankle_Lateral			L_Heel			L_Toe		
		X1	Y1	Z1	X2	Y2	Z2	X3	Y3	Z3	X4	Y4	Z4	X5	Y5	Z5	X6	Y6	Z6	X7	Y7	Z7	X8	Y8	Z8	X9	Y9	Z9	X10	Y10	Z10	X11	Y11	Z11	X12	Y12	Z12	X13	Y13	Z13	X14	Y14	Z14	X15	Y15	Z15	X16	Y16	Z16	X17	Y17	Z17	X18	Y18	Z18	X19	Y19	Z19	X20	Y20	Z20	X21	Y21	Z21	X22	Y22	Z22	X23	Y23	Z23	X24	Y24	Z24	X25	Y25	Z25
230	2.29000000	1322.787109	1251.667480	-22.072746	1289.362793	1273.027100	-360.470947	1234.650635	1327.434448	-189.181198	1365.699585	1242.137695	-202.555786	1203.816162	973.551086	37.813274	1371.614502	991.642700	-447.484467	1215.790039	751.959595	35.839596	1554.453613	870.246002	-420.057785	1390.201538	850.560242	-72.624100	1361.743774	846.739868	-333.840240	1202.389038	845.920105	-183.319351	1177.562866	1128.523193	-190.597183	1391.662354	1043.042114	-207.394257	1418.408081	465.103333	-5.957993	1452.217529	417.838684	-78.958534	1485.377075	245.179901	-44.826202	1525.574463	57.547218	-118.954338	1480.497681	34.316227	-162.151917	1631.692017	55.230194	-127.425514	1194.185303	472.915039	-361.447479	1175.771362	411.992584	-310.851501	1085.330566	237.691849	-338.115967	986.741638	104.775131	-264.780701	937.478088	141.202591	-226.223450	1064.003906	34.717167	-247.527176
231	2.30000000	1334.865601	1252.549683	-20.703085	1301.681885	1274.424194	-359.054474	1246.683838	1328.623901	-187.609360	1377.856445	1243.566162	-200.947220	1218.339600	973.425476	38.784168	1380.858154	991.997803	-446.189270	1231.785950	751.942566	37.387062	1561.456360	867.114014	-419.626755	1402.708374	852.508911	-71.511459	1374.959229	847.725464	-332.589813	1214.898560	847.039734	-183.037964	1189.807495	1129.629272	-189.674225	1404.102295	1044.489380	-206.170288	1429.653687	466.831390	-4.614832	1462.499146	419.001160	-77.838219	1491.868652	245.304459	-44.040112	1527.601196	57.074326	-118.759727	1481.630615	35.288017	-161.774567	1633.725342	51.628716	-127.369995	1211.075439	472.396454	-361.778259	1192.997070	411.323700	-311.894897	1096.874390	240.287918	-338.928802	993.809753	110.749619	-265.529083	947.335388	149.620056	-226.157181	1065.110474	34.703220	-247.135330
232	2.31000000	1346.912476	1253.650024	-19.405561	1314.131348	1276.042236	-357.675873	1258.724854	1329.953003	-186.127335	1390.012573	1245.119995	-199.372894	1233.245239	973.426941	39.795280	1389.814941	992.485413	-444.904694	1248.493530	752.104492	39.010358	1567.772766	863.678223	-419.257446	1414.974243	854.775513	-70.261131	1388.088989	848.915833	-331.108459	1227.266846	848.295593	-182.779556	1202.006104	1130.910522	-188.837402	1416.415039	1046.042847	-204.940262	1440.878296	468.719971	-3.157427	1472.640503	420.265503	-76.674049	1498.739136	245.602310	-43.080074	1529.359131	56.798870	-118.529472	1482.554321	36.236969	-161.301651	1635.425049	48.662178	-127.419640	1229.189575	471.584229	-362.396271	1211.267334	410.432953	-313.143860	1109.480835	242.980865	-339.896210	1002.108582	116.793976	-266.387329	958.780457	158.132278	-226.095520	1066.563354	34.757236	-246.777084
233	2.32000000	1358.923218	1254.921875	-18.191412	1326.646362	1277.815308	-356.326447	1270.736572	1331.344971	-184.738113	1402.140259	1246.728394	-197.863235	1248.488037	973.532288	40.860275	1398.491455	993.066162	-443.635651	1265.894287	752.427917	40.687160	1573.407227	859.965302	-418.935562	1426.966797	857.224792	-68.875481	1401.072632	850.250549	-329.421204	1239.487305	849.619019	-182.502121	1214.137207	1132.297974	-188.053970	1428.595337	1047.633545	-203.719055	1452.160156	470.628326	-1.623428	1482.501343	421.416809	-75.523979	1505.773071	245.889099	-42.101212	1530.857422	56.643044	-118.323349	1483.306885	37.104408	-160.820770	1636.828613	46.306232	-127.605736	1248.449341	470.471954	-363.304657	1230.464722	409.322449	-314.540314	1123.220337	245.700653	-341.022766	1011.737854	122.809525	-267.380646	971.779907	166.574432	-226.150299	1068.630859	34.993492	-246.592072
234	2.33000000	1370.903320	1256.300537	-17.071018	1339.145508	1279.666260	-355.007080	1282.693848	1332.741333	-183.436478	1414.213135	1248.329102	-196.445969	1264.020020	973.703064	41.991199	1406.898804	993.685608	-442.380829	1283.949951	752.879181	42.392000	1578.379883	855.998871	-418.648788	1438.665649	859.702820	-67.365417	1413.857666	851.651855	-327.579071	1251.548828	850.945007	-182.168854	1226.175903	1133.730347	-187.292282	1440.642334	1049.205078	-202.522934	1463.449463	472.429718	-0.061590	1491.892700	422.311493	-74.439796	1512.674561	246.052628	-41.239075	1532.108154	56.549881	-118.180817	1483.912720	37.857189	-160.396973	1637.964233	44.507549	-127.941399	1268.720337	469.084320	-364.459381	1250.446899	408.017639	-316.000244	1138.131836	248.377106	-342.284912	1022.709900	128.750320	-268.545715	986.206421	174.804550	-226.400238	1071.663818	35.581760	-246.755310
235	2.34000000	1382.863281	1257.715698	-16.054668	1351.547852	1281.517090	-353.732391	1294.582031	1334.107300	-182.215912	1426.206543	1249.873779	-195.144409	1279.797852	973.893311	43.194004	1415.048706	994.285156	-441.134827	1302.608582	753.416321	44.098851	1582.722351	851.803406	-418.387573	1450.060669	862.059692	-65.756630	1426.404907	853.043823	-325.652008	1263.433594	852.221069	-181.753555	1238.096558	1135.161621	-186.529282	1452.550903	1050.717407	-201.370010	1474.497803	474.006622	1.454693	1500.629517	422.902863	-73.462624	1519.159790	246.067139	-40.574028	1533.130249	56.485409	-118.117104	1484.392456	38.486565	-160.069702	1638.856323	43.189171	-128.395737	1289.803955	467.492035	-365.771057	1271.063477	406.574463	-317.430328	1154.198608	250.963577	-343.634460	1034.979004	134.617249	-269.895477	1001.860962	182.711029	-226.871704	1076.095459	36.721107	-247.443924
